<svg width="161" height="161" viewBox="0 0 161 161" fill="none" xmlns="http://www.w3.org/2000/svg">
<path d="M109.121 100.268C108.318 99.6995 107.464 99.2057 106.571 98.793L93.3711 92.793L87.8711 90.293C87.8764 91.1469 87.7239 91.9945 87.4211 92.793C86.9092 94.2544 85.9558 95.5206 84.6928 96.4164C83.4298 97.3123 81.9196 97.7935 80.3711 97.7935C78.8226 97.7935 77.3124 97.3123 76.0494 96.4164C74.7864 95.5206 73.833 94.2544 73.3211 92.793C73.0184 91.9945 72.8658 91.1469 72.8711 90.293L67.3711 92.793L54.1711 98.793C53.2778 99.2057 52.4243 99.6995 51.6211 100.268C49.6848 101.659 48.1079 103.491 47.021 105.612C45.9341 107.734 45.3685 110.084 45.3711 112.468V132.793H115.371V112.468C115.374 110.084 114.808 107.734 113.721 105.612C112.634 103.491 111.057 101.659 109.121 100.268Z" fill="#3D9AE2"/>
<path d="M87.8712 82.793V90.293C87.8765 91.1469 87.724 91.9945 87.4212 92.793C86.9093 94.2544 85.9559 95.5206 84.6929 96.4164C83.4299 97.3123 81.9197 97.7935 80.3712 97.7935C78.8228 97.7935 77.3126 97.3123 76.0496 96.4164C74.7865 95.5206 73.8331 94.2544 73.3212 92.793C73.0185 91.9945 72.8659 91.1469 72.8712 90.293V82.793H87.8712Z" fill="#FFC477"/>
<path d="M152.871 132.793V142.793H145.371H15.3711H7.87109V132.793H45.3711H60.3711H100.371H115.371H152.871Z" fill="#A97C50"/>
<path d="M145.371 22.7909C147.36 22.7909 149.268 23.5811 150.674 24.9876C152.081 26.3941 152.871 28.3018 152.871 30.2909C152.871 32.28 152.081 34.1877 150.674 35.5942C149.268 37.0007 147.36 37.7909 145.371 37.7909H115.371C113.382 37.7909 111.474 37.0007 110.068 35.5942C108.661 34.1877 107.871 32.28 107.871 30.2909C107.871 28.3018 108.661 26.3941 110.068 24.9876C111.474 23.5811 113.382 22.7909 115.371 22.7909H116.071C115.62 22.0351 115.379 21.173 115.371 20.2931C115.364 19.4132 115.591 18.5471 116.028 17.7837C116.466 17.0203 117.099 16.3871 117.862 15.9491C118.625 15.511 119.491 15.2839 120.371 15.2909C121.317 15.2984 122.243 15.5666 123.046 16.0659C123.291 14.6231 123.85 13.2518 124.684 12.049C125.518 10.8463 126.606 9.84164 127.871 9.10616C129.136 8.37067 130.548 7.92236 132.005 7.79299C133.463 7.66362 134.931 7.85634 136.306 8.35752C137.681 8.85869 138.929 9.65606 139.962 10.6931C140.994 11.7302 141.786 12.9817 142.282 14.3588C142.777 15.7359 142.963 17.2051 142.827 18.6623C142.692 20.1194 142.237 21.5289 141.496 22.7909H145.371Z" fill="#E6E7E8"/>
<path d="M15.3711 142.793H145.371V152.793H15.3711V142.793Z" fill="#A97C50"/>
<path d="M105.371 122.793V127.793C105.367 129.118 104.839 130.387 103.902 131.324C102.965 132.261 101.696 132.789 100.371 132.793H60.3711C59.0462 132.789 57.7768 132.261 56.8399 131.324C55.9031 130.387 55.3751 129.118 55.3711 127.793V122.793H105.371Z" fill="#ACABB1"/>
<path d="M100.37 60.293C101.696 60.293 102.967 60.8198 103.905 61.7574C104.843 62.6951 105.37 63.9669 105.37 65.293C105.37 66.6191 104.843 67.8908 103.905 68.8285C102.967 69.7662 101.696 70.293 100.37 70.293C99.4533 70.2904 98.5549 70.0399 97.7695 69.568C97.8409 68.9791 97.8743 68.3862 97.8695 67.793V60.968C98.6291 60.5273 99.4914 60.2945 100.37 60.293Z" fill="#FFB655"/>
<path d="M87.8711 82.793V88.593C85.5292 89.712 82.9666 90.2929 80.3711 90.2929C77.7756 90.2929 75.213 89.712 72.8711 88.593V82.793H87.8711Z" fill="#FFB655"/>
<path d="M109.396 98.618L109.121 100.268L105.371 122.793H55.3709L51.6209 100.268L51.3459 98.618C51.2261 97.902 51.2637 97.1686 51.4559 96.4687C51.6482 95.7687 51.9905 95.119 52.4592 94.5647C52.9278 94.0104 53.5116 93.5648 54.1698 93.2588C54.828 92.9529 55.545 92.7939 56.2709 92.793H104.471C105.197 92.7939 105.914 92.9529 106.572 93.2588C107.23 93.5648 107.814 94.0104 108.283 94.5647C108.751 95.119 109.094 95.7687 109.286 96.4687C109.478 97.1686 109.516 97.902 109.396 98.618Z" fill="#C6C5CA"/>
<path d="M62.8721 67.793C62.8673 68.3862 62.9007 68.979 62.9721 69.568C62.1868 70.0399 61.2884 70.2904 60.3721 70.293C59.6044 70.2943 58.8466 70.1189 58.1576 69.7802C57.4686 69.4415 56.8669 68.9487 56.399 68.34C55.9311 67.7313 55.6097 67.023 55.4597 66.2701C55.3096 65.5171 55.335 64.7398 55.5338 63.9982C55.7326 63.2567 56.0995 62.5708 56.6061 61.9939C57.1127 61.417 57.7453 60.9645 58.4549 60.6715C59.1645 60.3785 59.9321 60.2528 60.6981 60.3042C61.4641 60.3556 62.208 60.5827 62.8721 60.968V67.793Z" fill="#FFB655"/>
<path d="M42.8711 17.793V47.793C42.8711 50.4451 41.8175 52.9887 39.9422 54.864C38.0668 56.7394 35.5233 57.793 32.8711 57.793H17.8711C16.3148 57.7992 14.7798 57.4305 13.3961 56.718C11.7341 55.894 10.3359 54.6215 9.35946 53.0442C8.38306 51.467 7.86751 49.648 7.87111 47.793V17.793C7.87111 15.1408 8.92468 12.5973 10.8 10.7219C12.6754 8.84654 15.2189 7.79297 17.8711 7.79297H32.8711C35.5233 7.79297 38.0668 8.84654 39.9422 10.7219C41.8175 12.5973 42.8711 15.1408 42.8711 17.793Z" fill="#5AAAE7"/>
<path d="M80.3711 112.793C83.1325 112.793 85.3711 110.554 85.3711 107.793C85.3711 105.032 83.1325 102.793 80.3711 102.793C77.6097 102.793 75.3711 105.032 75.3711 107.793C75.3711 110.554 77.6097 112.793 80.3711 112.793Z" fill="#E6E7E8"/>
<path d="M42.8695 17.7902V47.7902C42.8695 50.4424 41.8159 52.9859 39.9406 54.8613C38.0652 56.7367 35.5217 57.7902 32.8695 57.7902H17.8695C16.3132 57.7965 14.7782 57.4277 13.3945 56.7152L41.5695 12.8652C42.4213 14.3669 42.8692 16.0638 42.8695 17.7902Z" fill="#3D9AE2"/>
<path d="M102.871 45.293V52.793L97.8711 57.793H96.4711C95.4206 57.7905 94.3974 57.4588 93.5453 56.8444C92.6932 56.23 92.0552 55.3639 91.7211 54.368L90.3711 50.293L85.6961 53.793C82.2357 56.3923 78.024 57.7962 73.6961 57.793H62.8711L55.3711 50.293L57.8711 45.293L52.8711 35.293H92.8711C95.5233 35.293 98.0668 36.3465 99.9422 38.2219C101.818 40.0973 102.871 42.6408 102.871 45.293Z" fill="#57565C"/>
<path d="M97.8716 60.968V67.793C97.8764 68.3862 97.843 68.9791 97.7716 69.568C97.4804 72.5638 96.4145 75.4323 94.6787 77.8914C92.9429 80.3504 90.5969 82.3153 87.8716 83.593C84.6088 85.136 80.9495 85.635 77.3927 85.0221C73.8358 84.4092 70.5547 82.7141 67.9965 80.168C65.1413 77.3255 63.3646 73.5777 62.9715 69.568C62.9002 68.9791 62.8668 68.3862 62.8715 67.793V57.793H73.6966C78.0245 57.7962 82.2362 56.3923 85.6966 53.793L90.3716 50.293L91.7216 54.368C92.0557 55.3639 92.6937 56.23 93.5458 56.8444C94.3978 57.4588 95.4211 57.7905 96.4716 57.793H97.8716V60.968Z" fill="#FFC477"/>
<path d="M15.3711 142.793H145.371V147.793H15.3711V142.793Z" fill="#8B5E3C"/>
<path d="M70.3711 62.793H75.3711V67.793H70.3711V62.793Z" fill="#EE8700"/>
<path d="M85.3711 62.793H90.3711V67.793H85.3711V62.793Z" fill="#EE8700"/>
<path d="M20.3711 15.293H30.3711V20.293H20.3711V15.293Z" fill="#3D9AE2"/>
<path d="M22.8711 45.293H27.8711V50.293H22.8711V45.293Z" fill="#1E81CE"/>
<path d="M17.8711 25.293H32.8711V30.293H17.8711V25.293Z" fill="#1E81CE"/>
<path d="M17.8711 35.293H32.8711V40.293H17.8711V35.293Z" fill="#1E81CE"/>
<path d="M135.371 92.793H140.371V97.793H135.371V92.793Z" fill="#1E81CE"/>
<path d="M143.18 89.9898C141.772 88.5859 139.864 87.7976 137.875 87.7976C135.886 87.7976 133.979 88.5859 132.57 89.9898L129.035 86.4548C131.382 84.1148 134.561 82.8008 137.875 82.8008C141.189 82.8008 144.368 84.1148 146.715 86.4548L143.18 89.9898Z" fill="#1E81CE"/>
<path d="M150.242 82.9181C148.617 81.2929 146.688 80.0037 144.564 79.1242C142.441 78.2446 140.165 77.7919 137.867 77.7919C135.569 77.7919 133.293 78.2446 131.17 79.1242C129.046 80.0037 127.117 81.2929 125.492 82.9181L121.957 79.3831C124.046 77.2938 126.527 75.6364 129.257 74.5057C131.986 73.375 134.912 72.793 137.867 72.793C140.822 72.793 143.748 73.375 146.477 74.5057C149.207 75.6364 151.688 77.2938 153.777 79.3831L150.242 82.9181Z" fill="#1E81CE"/>
<path d="M130.371 115.289H122.871V110.289H129.336L136.104 103.521L139.639 107.056L132.139 114.556C131.67 115.025 131.034 115.289 130.371 115.289Z" fill="#FFA733"/>
<path d="M41.1036 94.5605L23.6036 77.0605C23.1347 76.5917 22.8712 75.956 22.8711 75.293V65.293H27.8711V74.258L44.6386 91.0255L41.1036 94.5605Z" fill="#FFA733"/>
<path d="M130.371 60.293H112.871V55.293H127.871V45.293H132.871V57.793C132.871 58.456 132.608 59.0919 132.139 59.5607C131.67 60.0296 131.034 60.293 130.371 60.293Z" fill="#FFA733"/>
</svg>
