<svg width="161" height="161" viewBox="0 0 161 161" fill="none" xmlns="http://www.w3.org/2000/svg">
<g clip-path="url(#clip0)">
<path d="M154.538 145.865V108.96C154.538 96.6178 145.158 86.4667 133.139 85.2462C132.337 85.1648 131.524 85.3628 130.702 85.3628C117.537 85.3628 107.406 95.9595 107.406 109.124L107.407 145.71L154.538 145.865Z" fill="#855B51"/>
<path d="M133.275 85.2595C121.321 86.544 112.014 96.6623 112.014 108.957V145.59L106.863 145.709V108.957C106.863 95.7931 117.535 85.1211 130.699 85.1211C131.568 85.1211 132.428 85.1662 133.275 85.2595Z" fill="#724D44"/>
<path d="M137.356 159.291V134.315L136.368 131.397L137.356 122.824H124.051L124.614 136.385L124.051 140.892V159.291L130.701 160.292L137.356 159.291Z" fill="#C48958"/>
<path d="M123.791 137.014L110.715 142.19L112.303 160.292H130.699L129.739 159.236C125.157 154.193 124.264 147.68 124.09 140.893C124.052 139.399 123.791 138.521 123.791 137.014Z" fill="#FFD163"/>
<path d="M124.093 140.894L124.051 140.91L111.071 146.244L110.688 141.879L124.051 136.387L124.613 138.632L124.093 140.894Z" fill="#FFB65F"/>
<path d="M151.009 142.013L137.354 136.387C137.354 144.632 137.265 153.112 131.614 159.293L130.699 160.294H152.773C154.553 160.294 155.996 158.851 155.996 157.071V149.462C155.996 146.198 154.027 143.256 151.009 142.013Z" fill="#FFD163"/>
<path d="M124.049 122.826H124.047C124.047 122.826 124.048 134.298 124.049 134.298C124.049 134.298 124.053 139.4 124.091 140.893L127.436 139.518C127.919 139.32 128.235 138.849 128.235 138.327V136.897C128.235 136.499 128.593 136.199 128.986 136.266C129.559 136.362 130.13 136.412 130.695 136.412C132.98 136.412 135.237 135.639 137.349 134.316V122.826H124.049V122.826Z" fill="#B27A49"/>
<path d="M116.422 111.835C116.451 112.995 116.005 113.891 116.249 115.075C118.01 123.63 124.945 132.227 130.701 132.227C137.356 132.227 145.575 120.752 145.575 111.124C145.575 105.165 143.565 99.9043 139.751 96.7603C138.957 96.1061 138.304 96.1666 137.356 95.7085C137.057 95.564 136.705 95.732 136.625 96.054C134.846 103.161 128.817 108.991 121.464 110.52L116.829 111.323C116.589 111.374 116.422 111.835 116.422 111.835Z" fill="#C48958"/>
<path d="M122.432 113.705C130.925 111.873 137.781 104.985 139.749 96.7626C138.955 96.1085 138.085 95.5435 137.137 95.0854C136.838 94.9411 136.487 95.1089 136.406 95.4308C134.627 102.538 128.706 108.413 121.353 109.941L116.239 111.035C115.999 111.087 115.829 111.3 115.832 111.545V111.548C115.861 112.707 116.007 113.891 116.251 115.075L122.432 113.705Z" fill="#B27A49"/>
<path d="M55.3334 144.067L36.6914 137.425C33.182 141.476 27.101 141.011 23.5932 136.959L10.1365 142.551C7.11872 143.795 5.06641 146.196 5.06641 149.461V156.748C5.06641 158.528 6.5093 159.97 8.28894 159.97L8.92958 160.292H23.3843L29.8262 159.467L36.6897 160.292H48.5819L55.3334 159.097V144.067Z" fill="#BAE6EF"/>
<path d="M36.2234 126.047H24.0312L24.086 135.726C25.2443 137.063 26.0076 138.623 27.5712 139.077C30.7426 139.999 34.3366 139.104 36.687 136.393L36.6912 136.388V131.276L36.2234 126.047Z" fill="#F2D1A5"/>
<path d="M26.3345 139.124L12.3153 145.469L11.3267 145.883C9.87157 146.481 8.93153 147.885 8.93153 149.459V160.292H7.96863C6.18835 160.292 4.74609 158.85 4.74609 157.07V149.459C4.74609 146.198 6.71631 143.256 9.73281 142.013L22.7727 136.959C23.6815 137.867 26.3345 139.124 26.3345 139.124Z" fill="#94D8E6"/>
<path d="M51.8916 142.648L36.69 160.293H23.3845L12.3146 145.469L10.168 142.193L17.4559 139.659L23.3878 136.387C26.8936 140.44 33.1809 140.44 36.69 136.39V136.387L51.8916 142.648Z" fill="#F8F7F7"/>
<path d="M27.5757 126.049H23.3906V131.28V136.392V137.045L26.7162 139.114C26.7162 139.114 27.4672 139.027 27.5757 139.071V133.691C27.5757 133.296 27.9283 132.996 28.3184 133.057C28.8921 133.146 29.4661 133.192 30.0385 133.192C32.2695 133.192 34.5327 132.497 36.6928 131.277V126.049H27.5757Z" fill="#F2BB88"/>
<path d="M27.5726 139.075V139.078L12.313 145.468L9.73438 142.014L23.3875 136.387C23.6093 136.497 24.4933 138.099 27.5726 139.075Z" fill="#E8E8E8"/>
<path d="M45.3585 107.998C45.3585 97.8722 40.1626 91.6973 30.0368 91.6973C19.9111 91.6973 14.7148 97.8722 14.7148 107.998C14.7148 110.137 14.7786 112.309 15.453 114.405C17.9721 122.235 24.5196 129.007 30.0365 129.007C35.5071 129.007 41.9834 122.358 44.5508 114.619C45.2684 112.457 45.3585 110.209 45.3585 107.998Z" fill="#F2D1A5"/>
<path d="M38.6833 93.7271C37.6058 93.8478 36.5991 94.1169 35.7512 94.4836L35.7389 94.5161C35.662 93.719 35.4563 92.9724 35.1166 92.3038C33.5804 91.9056 31.887 91.6973 30.0381 91.6973C19.9121 91.6973 14.3945 97.8722 14.3945 107.998C14.3945 110.137 14.7837 112.308 15.4582 114.404C15.6826 114.2 15.9253 113.972 16.1899 113.702C18.1953 111.655 21.5672 108.26 25.5443 106.524C27.9765 105.462 30.0349 105.169 31.6262 103.784C31.9369 103.514 32.4082 103.587 32.6155 103.942C33.3412 105.187 34.9547 106.9 38.212 108.835C40.989 110.485 43.3491 112.821 44.5524 114.619C45.2697 112.457 45.6821 110.21 45.6821 107.999C45.6818 101.292 43.2592 96.3215 38.6833 93.7271Z" fill="#F2BB88"/>
<path d="M35.7772 90.6501C36.921 90.154 38.3336 89.4863 39.8432 89.4731C42.1656 89.4528 44.6596 90.154 46.5203 92.0382C52.6113 98.2055 49.4132 107.716 47.0737 111.89C46.8558 112.279 46.3233 112.339 46.0284 112.005C44.8579 110.681 41.9769 107.651 38.1102 105.176C36.8521 104.37 35.7672 103.424 34.8809 102.401C33.8494 101.21 33.5262 99.6574 33.0742 98.3594L35.7772 90.6501Z" fill="#8E868E"/>
<path d="M39.1938 95.5134C38.3278 98.0727 36.8372 100.42 34.8831 102.396C33.8465 101.208 33.0835 99.9142 32.6328 98.6168L35.7491 90.2981C36.8952 89.8023 38.331 89.4836 39.8409 89.4707C40.1048 91.3765 39.8924 93.4466 39.1938 95.5134Z" fill="#766D78"/>
<path d="M34.8602 87.6642C33.7952 86.0007 31.8919 84.9516 29.556 84.5794C25.8165 83.9838 21.1456 85.7113 16.8545 88.8476C8.76503 94.7599 10.4198 106.343 12.9572 111.485C13.1739 111.925 13.774 111.979 14.0611 111.582C14.5035 110.971 15.2049 110.522 16.1897 109.516C18.195 107.469 21.3654 104.942 25.866 103.304C33.9803 100.351 37.6294 91.9903 34.8602 87.6642Z" fill="#8E868E"/>
<path d="M29.5949 84.5869C26.7619 84.9925 23.6907 86.1933 20.8641 88.2601C13.846 93.3885 14.2935 103.555 16.1929 109.517C15.2078 110.522 14.5028 111.41 14.0617 112.022C13.7752 112.418 13.1732 112.363 12.9575 111.925C10.4207 106.781 8.58888 94.174 16.679 88.2601C20.9865 85.1116 25.8509 83.9752 29.5949 84.5869Z" fill="#766D78"/>
<path d="M46.2534 62.6825L38.7733 62.6409C37.8674 62.6409 36.9976 62.997 36.3514 63.6325L31.3132 68.5841C30.6378 69.2486 29.5532 69.2447 28.8826 68.5754L23.9465 63.6499C23.2991 63.0037 22.4218 62.6409 21.5072 62.6409H13.739C10.3062 62.6409 7.52344 59.8581 7.52344 56.4254V34.6644C7.52344 31.9425 8.9512 29.3072 11.3873 28.4659C12.0234 28.2464 12.7065 28.127 13.4174 28.127H52.9863V56.7476C52.9863 57.4591 52.8669 58.1429 52.6467 58.7794C51.8045 61.2141 48.9747 62.6825 46.2534 62.6825Z" fill="#F8F7F7"/>
<path d="M52.6438 58.7786C51.8035 61.2124 49.4921 62.9637 46.7717 62.9637H39.0969C38.189 62.9637 37.3198 63.3211 36.6727 63.9553L31.3126 69.2285C30.6397 69.8917 29.5548 69.8885 28.882 69.2189L23.6249 63.9714C22.9778 63.3275 22.0989 62.9637 21.1846 62.9637H13.4164C9.98461 62.9637 7.20312 60.179 7.20312 56.7472V34.344C7.20312 31.6205 8.95121 29.3058 11.3882 28.4688V56.7472C11.3882 57.8675 12.2961 58.7786 13.4164 58.7786H21.1846C23.2224 58.7786 25.1379 59.5706 26.5802 61.0096L29.2104 63.6366C29.7126 64.1356 30.5206 64.1388 31.0261 63.643L33.7399 60.971C35.1661 59.5673 37.0913 58.7786 39.0969 58.7786H52.6438Z" fill="#E8E8E8"/>
<path d="M29.5853 40.8104C29.8722 41.0808 30.3222 41.0727 30.6107 40.8039C31.638 39.8462 33.029 39.2593 34.5502 39.2638C37.6703 39.2731 40.2165 41.8351 40.1721 44.9144C40.1138 48.9804 35.7751 52.4595 32.8101 54.3659C31.7626 55.0394 30.8888 55.0954 30.4333 55.333C30.2208 55.4438 29.9681 55.4463 29.7534 55.3404C27.9783 54.4645 20.3401 50.5739 20.4544 44.9015C20.5004 42.6148 21.6191 40.7006 23.5916 39.8327C23.796 39.7428 24.0011 39.5358 24.2239 39.4724C24.6872 39.3401 25.1726 39.2674 25.6719 39.2638C27.1934 39.2532 28.5677 39.851 29.5853 40.8104Z" fill="#DF646E"/>
<path d="M32.8104 54.3652C31.7641 55.0381 30.8853 55.5145 30.4313 55.7527C30.2189 55.8654 29.9678 55.8686 29.7521 55.7624C27.975 54.8867 19.901 50.5857 20.0169 44.9133C20.0684 42.3894 21.8519 40.1519 24.2245 39.4727C23.4293 40.4481 22.9432 41.6779 22.9142 42.9817C22.8209 47.5757 29.3722 52.2759 32.8104 54.3652Z" fill="#DC4955"/>
<path d="M146.933 62.6412H139.258C138.352 62.6412 137.482 62.9973 136.836 63.6328L131.798 68.9063C131.122 69.5708 130.038 69.5669 129.367 68.8977L124.431 63.6502C123.783 63.0041 122.906 62.6412 121.992 62.6412H114.223C110.791 62.6412 108.008 59.8585 108.008 56.4257L108.418 28.7634L114.687 28.127H147.255C150.688 28.127 153.47 30.9097 153.47 34.3425V56.7473C153.47 57.4588 153.351 58.1422 153.131 58.779C152.289 61.2144 149.654 62.6412 146.933 62.6412Z" fill="#F8F7F7"/>
<path d="M130.074 40.8104C130.36 41.0808 130.811 41.0727 131.099 40.8039C132.126 39.8462 133.517 39.2593 135.038 39.2638C138.159 39.2731 140.705 41.8351 140.66 44.9144C140.602 48.9804 136.263 52.4595 133.298 54.3659C132.251 55.0394 131.377 55.0954 130.922 55.333C130.709 55.4438 130.456 55.4463 130.242 55.3404C128.467 54.4645 120.828 50.5739 120.943 44.9015C120.989 42.6148 122.107 40.7006 124.08 39.8327C124.284 39.7428 124.489 39.5358 124.712 39.4724C125.175 39.3401 125.661 39.2674 126.16 39.2638C127.682 39.2532 129.056 39.851 130.074 40.8104Z" fill="#DF646E"/>
<path d="M133.299 54.3652C132.252 55.0381 131.374 55.5145 130.92 55.7527C130.707 55.8654 130.456 55.8686 130.24 55.7624C128.463 54.8867 120.389 50.5857 120.505 44.9133C120.557 42.3894 122.34 40.1519 124.713 39.4727C123.918 40.4481 123.432 41.6779 123.403 42.9817C123.309 47.5757 129.86 52.2759 133.299 54.3652Z" fill="#DC4955"/>
<path d="M139.581 58.7784C137.566 58.7784 135.663 59.5575 134.224 60.9707L131.057 64.0903C130.805 64.3381 130.4 64.3349 130.149 64.087L127.068 61.0094C125.635 59.58 123.697 58.7784 121.672 58.7784H113.904C112.782 58.7784 111.873 57.8689 111.873 56.747V45.4768C111.873 45.3236 111.93 45.1768 112.029 45.0599C112.337 44.6968 112.615 44.314 112.858 43.9113C114.055 41.9185 114.69 39.6328 114.69 37.302V28.127H107.688V56.7467C107.688 60.1801 110.471 62.9632 113.904 62.9632H121.672C122.586 62.9632 123.465 63.327 124.112 63.9708L129.37 69.2183C130.039 69.8879 131.124 69.8911 131.8 69.228L137.16 63.9547C137.807 63.3205 138.677 62.9632 139.581 62.9632H147.256C149.98 62.9632 152.291 61.2119 153.131 58.7781H139.581V58.7784Z" fill="#E8E8E8"/>
<path d="M100.886 45.1751L91.5815 45.4902C90.1077 45.4902 88.7038 46.118 87.7213 47.2161L82.318 53.1625C81.3518 54.2423 79.6594 54.2355 78.702 53.148L73.7044 47.0967C72.7209 45.9796 71.3047 45.3396 69.8164 45.3396L59.1498 45.9364C54.382 45.9364 50.5156 42.07 50.5156 37.3022V8.92717C50.5156 5.78673 52.1932 3.03647 54.7007 1.52597C56.0001 0.743029 57.5221 0.292969 59.1495 0.292969H101.871C106.639 0.292969 110.504 4.15808 110.504 8.92589V37.3025C110.504 38.9296 110.054 40.4517 109.271 41.751C107.761 44.2585 104.027 45.1751 100.886 45.1751Z" fill="#F8F7F7"/>
<path d="M109.271 41.7507C107.758 44.2586 105.009 45.9359 101.87 45.9359H91.578C90.1035 45.9359 88.6999 46.5636 87.7148 47.6614L82.3257 53.6847C81.3599 54.7664 79.6665 54.76 78.7104 53.6719L73.4468 47.6936C72.4649 46.5765 71.0484 45.9359 69.5579 45.9359H59.1498C54.382 45.9359 50.5156 42.0695 50.5156 37.3016V8.9266C50.5156 5.78777 52.1929 3.03847 54.7007 1.52539V37.3016C54.7007 39.758 56.6935 41.7507 59.1498 41.7507H69.5579C72.2492 41.7507 74.8118 42.9065 76.5889 44.9282L79.8178 48.595C80.1977 49.0296 80.8738 49.0296 81.2601 48.5982L84.5985 44.8703C86.3724 42.8839 88.9124 41.7507 91.578 41.7507H109.271Z" fill="#E8E8E8"/>
<path d="M79.7326 14.402C80.1726 14.8166 80.8632 14.8044 81.3055 14.3923C82.8817 12.923 85.0158 12.0226 87.3495 12.0293C92.1363 12.0435 96.0426 15.974 95.9747 20.6983C95.8807 27.2374 88.5712 32.7872 84.0368 35.605C82.7175 36.425 81.7314 36.6497 81.1281 36.9642C80.8023 37.1342 80.4147 37.1384 80.0848 36.9755C77.3612 35.6317 65.471 29.8962 65.6465 21.1941C65.7218 17.4584 67.6778 13.6309 71.126 12.4678C71.9496 12.19 72.8239 12.0358 73.7282 12.0297C76.0629 12.0126 78.1712 12.9304 79.7326 14.402Z" fill="#DF646E"/>
<path d="M84.0362 35.6067C82.7163 36.4276 81.6314 37.0167 81.0294 37.329C80.7042 37.4996 80.3147 37.5028 79.9863 37.3419C77.2628 35.9962 64.8748 29.403 65.0487 20.7012C65.1227 16.9636 67.6757 13.6316 71.1268 12.4727C69.5976 14.0469 68.635 16.1716 68.5899 18.4477C68.4418 25.8875 79.2072 32.8896 84.0362 35.6067Z" fill="#DC4955"/>
<path d="M88.8203 113.102H72.0625L72.8548 124.275L72.0625 130.182L72.0651 130.185C72.821 131.057 73.3493 132.089 74.2928 132.713C77.8795 135.086 82.8765 135.295 86.4168 133.165C87.3903 132.58 88.0248 131.099 88.8152 130.187L88.8203 130.182V123.084L88.143 121.973L88.8203 113.102Z" fill="#E3A76F"/>
<path d="M106.32 137.389L97.5543 133.778L88.8236 131.123C84.4031 136.225 76.4855 136.686 72.067 131.582L55.2152 137.389C51.5938 138.882 49.2305 142.412 49.2305 146.328L49.5524 159.648L52.7704 160.292H73.9213L80.7675 158.741L86.834 160.292H112.305V146.329C112.305 142.412 109.941 138.882 106.32 137.389Z" fill="#CCF49F"/>
<path d="M76.2515 113.102H72.0664V123.085V130.183C72.5918 130.79 72.3555 131.813 72.9678 132.275C73.6651 132.802 75.2223 132.748 76.0004 133.087H76.0036L76.0007 125.141C76.0007 124.727 76.3867 124.42 76.7908 124.514C77.9549 124.786 79.2613 125.071 80.4431 125.071C83.5079 125.071 86.3119 124.357 88.823 123.085V113.102H76.2515V113.102Z" fill="#D6995C"/>
<path d="M75.6298 133.087L65.938 137.233L56.1635 141.261C54.0999 142.111 52.7671 144.1 52.7671 146.328V160.293H48.582V146.328C48.582 142.413 50.945 138.882 54.5667 137.391L63.2879 133.798L67.2663 132.57L71.8899 130.494C73.0131 131.792 74.1682 132.45 75.6298 133.087Z" fill="#B3E59F"/>
<path d="M97.5537 133.778C97.3444 134.022 97.2028 134.183 97.1899 134.199C91.0957 141.459 87.4676 150.473 86.8333 159.935V160.292H73.9207V160.06C73.4088 151.834 70.6334 143.939 65.9406 137.232C65.1442 136.093 64.6542 135.096 63.7489 134.029L63.6523 133.904L72.066 130.513C73.1902 131.812 74.541 132.448 76.0032 133.086C80.2862 134.954 85.5244 133.987 88.8197 130.185L88.8229 130.182L97.5537 133.778Z" fill="#F8F7F7"/>
<path d="M75.9989 133.085L65.9386 137.232C65.1434 136.092 64.2903 134.988 63.3856 133.922L63.2891 133.797L72.0649 130.182C72.8376 131.073 73.7164 131.811 74.6661 132.39C74.753 132.445 74.84 132.496 74.9269 132.545C75.2778 132.747 75.6351 132.924 75.9989 133.085Z" fill="#E8E8E8"/>
<path d="M98.6651 94.1914C98.6651 82.0648 92.5661 72.3477 80.4396 72.3477C68.3131 72.3477 62.8148 82.1489 62.8148 94.2757C62.8148 96.3 61.8893 98.418 62.2524 100.494C64.0649 110.854 70.3371 120.885 80.4396 120.885C91.1966 120.885 97.6111 109.512 98.923 98.4782C99.0898 97.0736 98.6651 95.5609 98.6651 94.1914Z" fill="#E3A76F"/>
<path d="M99.176 94.3047C99.176 85.4374 95.6386 77.8031 88.9981 74.3372C88.7879 74.6005 88.3559 74.4347 88.4283 74.0494C86.1162 72.9548 83.4493 72.3477 80.4415 72.3477C68.315 72.3477 61.707 82.1782 61.707 94.3047C61.707 96.329 61.8921 98.4177 62.2553 100.493C62.537 100.12 62.923 99.8464 63.2906 99.5007C66.4629 96.5157 71.0144 96.4088 71.4992 93.2874C71.5598 92.8975 71.9287 92.6429 72.3089 92.7485C75.9174 93.75 81.7763 91.464 83.7359 87.4961C83.9248 87.1134 84.4206 87.0242 84.7416 87.3056C86.5737 88.9123 88.9866 88.8708 90.0341 88.76C90.3342 88.7285 90.6168 88.9065 90.7144 89.1918C92.5362 94.5171 97.5309 92.5633 98.9236 98.4782C99.091 97.0733 99.176 95.6742 99.176 94.3047Z" fill="#D6995C"/>
<path d="M100.835 77.8128C100.666 77.7642 100.351 77.7043 100.089 77.6586C99.8831 77.6226 99.7621 77.4011 99.8513 77.2118C100.344 76.1661 100.577 74.9743 100.465 73.7185C100.177 70.4931 97.5649 67.8841 94.3388 67.6028C92.2424 67.4199 90.3237 68.1954 88.9703 69.5392C88.7862 69.722 88.4774 69.6309 88.4275 69.3763C87.6913 65.5987 84.3657 62.7474 80.3725 62.7474C78.4193 62.7474 76.6268 63.4308 75.2174 64.5702C75.0773 64.6832 74.8781 64.6629 74.7625 64.5251C73.5231 63.0471 71.6678 62.1035 69.5878 62.1035C66.1618 62.1035 63.3333 64.6526 62.89 67.9572C62.869 68.1127 62.7441 68.2302 62.5874 68.2392C61.8315 68.2827 61.0984 68.4131 60.3989 68.6204C56.4047 69.8041 53.9258 73.6747 53.9258 78.053C53.9258 80.538 54.8497 82.4238 56.3918 84.1356C56.4484 84.1983 56.4777 84.2782 56.4726 84.3625C56.4311 85.0176 56.2472 88.085 56.7755 90.9029C57.7413 96.0538 61.7078 97.4716 61.7078 97.4716C61.7078 95.9533 62.4438 95.3719 63.2917 94.6711C65.2603 93.0437 68.6596 92.7501 69.5169 89.7494C69.5617 89.5929 69.7111 89.4909 69.8711 89.5189C70.3894 89.6097 71.4987 89.7896 72.1632 89.7896C77.0994 89.7896 81.3125 86.7023 82.9827 82.3543C83.0686 82.1306 83.3661 82.091 83.5148 82.2793C84.9593 84.1085 87.1968 85.2829 89.7085 85.2829C90.4489 85.2829 91.1649 85.1796 91.8442 84.9887C92.0103 84.942 92.1825 85.036 92.2331 85.2008C94.2091 91.6552 99.1524 89.5727 99.1524 95.597C102.39 94.1348 104.325 89.1368 105.248 85.8154C106.217 82.3289 104.186 78.7812 100.835 77.8128Z" fill="#855B51"/>
<path d="M63.2879 94.6705C62.4412 95.3724 61.8891 96.3497 61.8891 97.8693C61.8891 97.8693 57.3515 96.2287 56.3857 91.0778C55.8577 88.2609 56.009 85.2218 56.0509 84.5651C56.0573 84.4814 56.0251 84.4009 55.9704 84.3398C54.4283 82.6271 53.4883 80.3639 53.4883 77.8786C53.4883 73.5003 56.4018 69.8045 60.3969 68.623C58.3334 70.3937 57.0295 73.0174 57.0295 75.947C57.0295 78.4323 57.9696 80.6955 59.5116 82.4082C59.5663 82.4693 59.5985 82.5498 59.5921 82.6335C59.5503 83.2903 59.3989 86.3293 59.9269 89.1462C60.4452 91.9051 61.9776 93.6468 63.2879 94.6705Z" fill="#724D44"/>
</g>
<defs>
<clipPath id="clip0">
<rect width="160" height="160" fill="white" transform="translate(0.371094 0.292969)"/>
</clipPath>
</defs>
</svg>
