<svg width="25" height="25" viewBox="0 0 25 25" fill="none" xmlns="http://www.w3.org/2000/svg">
<g clip-path="url(#clip0)">
<path d="M18.6932 15.1641C17.025 15.1641 15.668 16.5211 15.668 18.1893C15.668 19.8574 17.025 21.2145 18.6932 21.2145C20.3616 21.2145 21.7184 19.8574 21.7184 18.1893C21.7184 16.5211 20.3613 15.1641 18.6932 15.1641ZM18.6932 19.7019C17.859 19.7019 17.1806 19.0235 17.1806 18.1893C17.1806 17.3551 17.859 16.6767 18.6932 16.6767C19.5274 16.6767 20.2058 17.3551 20.2058 18.1893C20.2058 19.0235 19.5274 19.7019 18.6932 19.7019Z" fill="#333333"/>
<path d="M8.35725 15.1641C6.68911 15.1641 5.33203 16.5211 5.33203 18.1893C5.33203 19.8574 6.68911 21.2145 8.35725 21.2145C10.0254 21.2145 11.3825 19.8574 11.3825 18.1893C11.3825 16.5211 10.0254 15.1641 8.35725 15.1641ZM8.35725 19.7019C7.52306 19.7019 6.84464 19.0235 6.84464 18.1893C6.84464 17.3551 7.52306 16.6767 8.35725 16.6767C9.1912 16.6767 9.86986 17.3551 9.86986 18.1893C9.86986 19.0235 9.19144 19.7019 8.35725 19.7019Z" fill="#333333"/>
<path d="M20.7333 6.50438C20.6047 6.249 20.3433 6.08789 20.0574 6.08789H16.0742V7.6005H19.591L21.6504 11.6966L23.0022 11.0169L20.7333 6.50438Z" fill="#333333"/>
<path d="M16.4258 17.457H10.7031V18.9696H16.4258V17.457Z" fill="#333333"/>
<path d="M6.09294 17.457H3.47113C3.05337 17.457 2.71484 17.7956 2.71484 18.2133C2.71484 18.6311 3.05342 18.9696 3.47113 18.9696H6.09298C6.51073 18.9696 6.84927 18.631 6.84927 18.2133C6.84927 17.7956 6.51069 17.457 6.09294 17.457Z" fill="#333333"/>
<path d="M24.4131 12.833L22.9255 10.9171C22.7826 10.7325 22.562 10.6246 22.3283 10.6246H16.8325V5.3305C16.8325 4.91275 16.4939 4.57422 16.0762 4.57422H3.47112C3.05337 4.57422 2.71484 4.9128 2.71484 5.3305C2.71484 5.7482 3.05342 6.08678 3.47112 6.08678H15.3199V11.3809C15.3199 11.7986 15.6584 12.1372 16.0761 12.1372H21.9579L23.0593 13.556V17.4565H20.9669C20.5491 17.4565 20.2106 17.7951 20.2106 18.2128C20.2106 18.6305 20.5492 18.9691 20.9669 18.9691H23.8156C24.2334 18.9691 24.5719 18.6305 24.572 18.2128V13.2969C24.572 13.129 24.516 12.9656 24.4131 12.833Z" fill="#333333"/>
<path d="M6.04389 13.625H2.56487C2.14712 13.625 1.80859 13.9636 1.80859 14.3813C1.80859 14.799 2.14717 15.1376 2.56487 15.1376H6.04384C6.46159 15.1376 6.80013 14.799 6.80013 14.3813C6.80017 13.9636 6.46159 13.625 6.04389 13.625Z" fill="#333333"/>
<path d="M7.78039 10.6504H1.32659C0.908891 10.6504 0.570312 10.989 0.570312 11.4067C0.570312 11.8245 0.908891 12.163 1.32659 12.163H7.78039C8.19814 12.163 8.53667 11.8244 8.53667 11.4067C8.53667 10.989 8.19814 10.6504 7.78039 10.6504Z" fill="#333333"/>
<path d="M9.01867 7.67578H2.56488C2.14712 7.67578 1.80859 8.01436 1.80859 8.43206C1.80859 8.84981 2.14717 9.18834 2.56488 9.18834H9.01867C9.43642 9.18834 9.77495 8.84977 9.77495 8.43206C9.775 8.01436 9.43642 7.67578 9.01867 7.67578Z" fill="#333333"/>
</g>
<defs>
<clipPath id="clip0">
<rect width="24" height="24" fill="white" transform="translate(0.570312 0.894531)"/>
</clipPath>
</defs>
</svg>
