<svg width="25" height="25" viewBox="0 0 25 25" fill="none" xmlns="http://www.w3.org/2000/svg">
<path d="M21.8746 8.89909C21.7527 8.89959 21.6323 8.87223 21.5226 8.81909L12.2746 4.09909L3.02663 8.78709C2.82931 8.88045 2.60298 8.8916 2.39744 8.81808C2.1919 8.74457 2.02399 8.59241 1.93063 8.39509C1.83727 8.19777 1.82613 7.97145 1.89964 7.76591C1.97316 7.56037 2.12531 7.39245 2.32263 7.29909L12.2746 2.37109L22.2266 7.29909C22.4364 7.3481 22.6184 7.47777 22.7333 7.66002C22.8482 7.84227 22.8866 8.06243 22.8403 8.27283C22.794 8.48322 22.6667 8.66692 22.486 8.78413C22.3053 8.90135 22.0856 8.94265 21.8746 8.89909ZM8.27463 16.8991H3.47463V21.6991H8.27463V16.8991ZM14.6746 16.8991H9.87463V21.6991H14.6746V16.8991ZM21.0746 16.8991H16.2746V21.6991H21.0746V16.8991ZM17.8746 10.4991H13.0746V15.2991H17.8746V10.4991ZM11.4746 10.4991H6.67463V15.2991H11.4746V10.4991Z" fill="#15A4DD"/>
</svg>
