<svg width="159" height="141" viewBox="0 0 159 141" fill="none" xmlns="http://www.w3.org/2000/svg">
<path opacity="0.3" d="M79.3711 140.293C123.002 140.293 158.371 137.607 158.371 134.293C158.371 130.979 123.002 128.293 79.3711 128.293C35.7406 128.293 0.371094 130.979 0.371094 134.293C0.371094 137.607 35.7406 140.293 79.3711 140.293Z" fill="#FFA800"/>
<path d="M33.6934 108.794C27.9184 108.794 25.2934 104.594 27.9184 99.5191L74.6434 7.64414C77.2684 2.56914 81.4684 2.56914 84.0934 7.64414L130.818 99.5191C133.443 104.594 130.818 108.794 125.043 108.794H33.6934Z" fill="#FFCE31"/>
<path d="M72.022 41.5926L76.922 73.9676C77.447 77.1176 81.472 77.1176 81.997 73.9676L86.722 41.5926C87.597 28.9926 71.147 28.9926 72.022 41.5926Z" fill="#231F20"/>
<path d="M79.3734 94.4422C83.4327 94.4422 86.7234 91.1515 86.7234 87.0922C86.7234 83.0329 83.4327 79.7422 79.3734 79.7422C75.3141 79.7422 72.0234 83.0329 72.0234 87.0922C72.0234 91.1515 75.3141 94.4422 79.3734 94.4422Z" fill="#231F20"/>
</svg>
